<?xml version="1.0" encoding="UTF-8" standalone="no"?>
<svg width="64px" height="55px" viewBox="0 0 64 55" version="1.1" xmlns="http://www.w3.org/2000/svg" xmlns:xlink="http://www.w3.org/1999/xlink">
    <!-- Generator: Sketch 3.8.3 (29802) - http://www.bohemiancoding.com/sketch -->
    <title>icon-external-link--reverse</title>
    <desc>Created with Sketch.</desc>
    <defs></defs>
    <g id="Page-1" stroke="none" stroke-width="1" fill="none" fill-rule="evenodd">
        <g id="icon-external-link--reverse" fill="#FFFFFF">
            <path d="M50.2857742,33.2856884 C50.2857742,32.6428305 49.7857736,32.1428299 49.1429157,32.1428299 L46.8571987,32.1428299 C46.2143408,32.1428299 45.7143402,32.6428305 45.7143402,33.2856884 L45.7143402,44.7142735 C45.7143402,47.8571343 43.1429086,50.428566 40.0000477,50.428566 L10.2857265,50.428566 C7.14286566,50.428566 4.57143402,47.8571343 4.57143402,44.7142735 L4.57143402,14.9999523 C4.57143402,11.8570914 7.14286566,9.28565979 10.2857265,9.28565979 L35.4286137,9.28565979 C36.0714716,9.28565979 36.5714722,8.78565919 36.5714722,8.14280128 L36.5714722,5.85708427 C36.5714722,5.21422637 36.0714716,4.71422577 35.4286137,4.71422577 L10.2857265,4.71422577 C4.60714835,4.71422577 0,9.32137412 0,14.9999523 L0,44.7142735 C0,50.3928517 4.60714835,55 10.2857265,55 L40.0000477,55 C45.6786259,55 50.2857742,50.3928517 50.2857742,44.7142735 L50.2857742,33.2856884 Z M64.0000763,2.42850876 C64.0000763,1.17850727 62.9643608,0.142791748 61.7143593,0.142791748 L43.4286232,0.142791748 C42.1786217,0.142791748 41.1429062,1.17850727 41.1429062,2.42850876 C41.1429062,3.03565234 41.3929065,3.60708159 41.8214784,4.03565353 L48.1072002,10.3213753 L24.8214582,33.6071174 C24.6071722,33.8214033 24.4643149,34.1428323 24.4643149,34.4285469 C24.4643149,34.7142615 24.6071722,35.0356905 24.8214582,35.2499765 L28.8928916,39.3214099 C29.1071776,39.5356959 29.4286065,39.6785532 29.7143211,39.6785532 C30.0000358,39.6785532 30.3214647,39.5356959 30.5357507,39.3214099 L53.8214927,16.0356678 L60.1072145,22.3213896 C60.5357864,22.7499616 61.1072157,22.9999619 61.7143593,22.9999619 C62.9643608,22.9999619 64.0000763,21.9642463 64.0000763,20.7142448 L64.0000763,2.42850876 Z" id=""></path>
        </g>
    </g>
</svg>