<?xml version="1.0" encoding="UTF-8" standalone="no"?>
<svg width="54px" height="64px" viewBox="0 0 54 64" version="1.1" xmlns="http://www.w3.org/2000/svg" xmlns:xlink="http://www.w3.org/1999/xlink">
    <!-- Generator: Sketch 3.8.3 (29802) - http://www.bohemiancoding.com/sketch -->
    <title>icon-document</title>
    <desc>Created with Sketch.</desc>
    <defs></defs>
    <g id="Page-1" stroke="none" stroke-width="1" fill="none" fill-rule="evenodd">
        <g id="icon-document" fill="#262626">
            <path d="M52.0000625,13.7142365 L40.8571921,2.57136607 C39.5357619,1.24993593 36.8929016,0.142791748 35.0000422,0.142791748 L3.00000409,0.142791748 C1.10714469,0.142791748 -0.428571429,1.67850786 -0.428571429,3.57136726 L-0.428571429,60.7142925 C-0.428571429,62.6071519 1.10714469,64.142868 3.00000409,64.142868 L51.0000613,64.142868 C52.8929207,64.142868 54.4286368,62.6071519 54.4286368,60.7142925 L54.4286368,19.5713863 C54.4286368,17.6785269 53.3214926,15.0356666 52.0000625,13.7142365 L52.0000625,13.7142365 Z M36.1429007,4.9999404 C36.7500443,5.21422637 37.3571879,5.53565532 37.6071882,5.78565562 L48.785773,16.9642404 C49.0357733,17.2142407 49.3572022,17.8213843 49.5714882,18.4285278 L36.1429007,18.4285278 L36.1429007,4.9999404 Z M49.8572028,59.571434 L4.14286259,59.571434 L4.14286259,4.71422577 L31.5714667,4.71422577 L31.5714667,19.5713863 C31.5714667,21.4642457 33.1071828,22.9999619 35.0000422,22.9999619 L49.8572028,22.9999619 L49.8572028,59.571434 Z" id=""></path>
        </g>
    </g>
</svg>